<?xml version="1.0" encoding="UTF-8"?>
<!DOCTYPE svg PUBLIC "-//W3C//DTD SVG 1.1//EN" "http://www.w3.org/Graphics/SVG/1.1/DTD/svg11.dtd">
<!-- Creator: CorelDRAW 2020 (64 Bit) -->
<svg xmlns="http://www.w3.org/2000/svg" xml:space="preserve" width="100.395mm" height="19.2422mm" version="1.1" style="shape-rendering:geometricPrecision; text-rendering:geometricPrecision; image-rendering:optimizeQuality; fill-rule:evenodd; clip-rule:evenodd"
viewBox="0 0 9188.1 1761.03"
 xmlns:xlink="http://www.w3.org/1999/xlink"
 xmlns:xodm="http://www.corel.com/coreldraw/odm/2003">
 <defs>
  <style type="text/css">
   <![CDATA[
    .fil2 {fill:#373435}
    .fil1 {fill:#C2A755}
    .fil3 {fill:#373435;fill-rule:nonzero}
    .fil0 {fill:#373435;fill-rule:nonzero}
   ]]>
  </style>
 </defs>
 <g id="Camada_x0020_1">
  <metadata id="CorelCorpID_0Corel-Layer"/>
  <path class="fil0" d="M2173.85 1161.68c24.14,0 44.81,-8.66 61.99,-25.96 17.17,-17.31 26.23,-38.13 27.15,-62.44l0 -785.86c-2.79,-22.45 -12.54,-41.39 -29.25,-56.83 -16.71,-15.44 -36.68,-23.15 -59.89,-23.15l-16.72 0 -1.39 -14.03 408.1 0c28.78,0 60.12,-2.81 94.01,-8.43 33.9,-5.61 57.81,-11.22 71.73,-16.84l0 176.82 -13.92 0 0 -25.26c0,-22.46 -7.67,-41.63 -22.98,-57.54 -15.33,-15.91 -33.67,-24.33 -55.02,-25.26l-284.13 0 0 433.62 235.38 0c18.58,-0.93 34.37,-7.94 47.36,-21.05 13,-13.1 19.49,-29.47 19.49,-49.11l0 -19.65 13.94 0 0 221.72 -13.94 0 0 -21.05c0,-18.72 -6.27,-34.61 -18.81,-47.72 -12.53,-13.1 -28.08,-20.11 -46.65,-21.05l-236.78 0 0 419.6 199.17 0c68.7,0 121.17,-15.44 157.38,-46.31 36.22,-30.88 66.4,-76.72 90.54,-137.53l13.93 0 -80.78 227.33 -578.03 0 0 -14.03 18.11 0zm1771.67 -954.25c-23.22,0 -43.19,8.18 -59.9,24.55 -16.71,16.37 -25.53,36.25 -26.46,59.64l0 724.11c0,54.26 3.25,105.71 9.75,154.37l2.79 25.26 -12.54 0 -759.1 -816.73 0 698.85c0.94,32.74 15.33,57.06 43.19,72.97 13,7.49 26.92,11.23 41.79,11.23l26.46 0 0 14.03 -286.92 0 0 -14.03 26.46 0c23.22,0 43.19,-8.19 59.9,-24.56 16.71,-16.37 25.07,-36.72 25.07,-61.04l0 -728.32c0,-57.06 -3.25,-108.05 -9.75,-152.96l-2.79 -22.46 13.93 0 759.09 816.73 0 -696.04c-0.92,-24.33 -9.75,-44.67 -26.47,-61.04 -16.71,-16.37 -36.67,-24.55 -59.88,-24.55l-26.47 0 0 -14.03 286.92 0 0 14.03 -25.07 0zm640.7 987.93c-146.72,-0.94 -266.27,-48.18 -358.65,-141.74 -92.39,-93.55 -138.59,-216.81 -138.59,-369.77 0,-152.96 46.2,-276.21 138.59,-369.77 92.39,-93.55 214.72,-140.33 367.01,-140.33 124.42,0 234.45,31.8 330.09,95.43l27.86 197.86 -12.53 0c-20.44,-80.45 -61.76,-142.44 -123.96,-185.94 -62.21,-43.5 -136.03,-65.25 -221.46,-65.25 -121.65,0 -218.9,42.57 -291.8,127.7 -72.89,85.14 -109.34,197.87 -109.34,338.2 0,140.34 35.98,253.3 107.95,338.9 71.96,85.61 166.9,129.81 284.83,132.62 103.99,0 190.82,-28.54 260.44,-85.61 75.22,-61.75 120.71,-162.32 136.5,-301.71l11.15 0 -16.71 220.32c-84.5,139.39 -214.96,209.09 -391.38,209.09zm713.81 -880.58c92.4,-94.02 212.87,-141.03 361.45,-141.03 148.56,0 269.27,47.01 362.13,141.03 92.86,94.02 139.27,217.28 139.27,369.77 0,152.49 -46.42,275.75 -139.27,369.77 -92.86,94.02 -213.57,141.03 -362.13,141.03 -148.57,0 -269.05,-47.01 -361.45,-141.03 -92.39,-94.03 -138.59,-217.28 -138.59,-369.77 0,-152.5 46.2,-275.76 138.59,-369.77zm76.61 709.37c71.96,86.06 167.14,129.11 285.52,129.11 118.4,0 213.58,-43.04 285.54,-129.11 71.95,-86.07 107.95,-199.27 107.95,-339.6 0,-92.62 -16.25,-174.48 -48.75,-245.58 -32.5,-71.1 -78.7,-126.06 -138.59,-164.89 -59.89,-38.82 -128.84,-58.23 -206.83,-58.23 -117.93,0 -212.87,43.03 -284.83,129.11 -71.96,86.06 -107.95,199.26 -107.95,339.6 0,140.33 35.99,253.53 107.95,339.6zm1197.12 -787.26l-89.13 0 0 836.37c0,24.32 8.58,45.14 25.76,62.44 17.17,17.31 38.3,25.96 63.37,25.96l16.72 0 1.39 14.03 -305.03 0 0 -14.03 18.11 0c24.14,0 44.81,-8.42 61.99,-25.26 17.17,-16.84 26.23,-37.42 27.15,-61.75l0 -778.84c-0.92,-24.33 -9.98,-45.14 -27.15,-62.44 -17.18,-17.32 -37.84,-25.96 -61.99,-25.96l-18.11 0 0 -14.03 376.07 0c84.5,0 150.89,23.62 199.16,70.86 48.29,47.24 72.44,108.52 72.44,183.83 0,75.31 -22.98,140.33 -68.95,195.05 -45.96,54.73 -101.91,82.09 -167.84,82.09 13.93,6.55 30.41,19.42 49.45,38.59 19.04,19.18 35.98,39.06 50.84,59.64 79.85,115.07 131.85,185.94 156,212.6 24.13,26.67 41.32,44.91 51.53,54.73 10.21,9.83 21.36,19.41 33.43,28.77 12.07,9.35 24.14,16.84 36.21,22.45 26.92,13.1 55.71,19.65 86.35,19.65l0 14.03 -76.6 0c-39.93,0 -77.07,-7.25 -111.42,-21.75 -34.36,-14.5 -60.13,-29.47 -77.31,-44.9 -17.18,-15.44 -32.04,-30.41 -44.57,-44.91 -12.54,-14.51 -47.11,-62.92 -103.76,-145.24 -56.64,-82.33 -89.61,-129.34 -98.89,-141.03 -9.29,-11.7 -19.04,-23.15 -29.25,-34.38 -29.72,-31.81 -59.43,-47.72 -89.14,-47.72l0 -14.03c7.43,0.93 17.18,1.4 29.25,1.4 12.07,0 26.92,-0.47 44.56,-1.4 115.14,-2.81 187.58,-51.45 217.28,-145.95 5.57,-18.71 8.36,-36.25 8.36,-52.62 0,-16.37 0,-26.9 0,-31.57 -1.87,-62.68 -18.12,-113.2 -48.75,-151.56 -30.64,-38.36 -71.96,-58.94 -123.96,-61.75 -22.28,-0.93 -50.14,-1.4 -83.58,-1.4zm1086.41 -43.5c148.55,0 269.04,45.14 361.43,135.41 92.39,90.28 138.59,208.86 138.59,355.74 0,146.88 -46.2,265.46 -138.59,355.73 -92.39,90.28 -212.87,135.42 -361.43,135.42l-472.17 0 0 -14.03 18.1 0c24.14,0 44.81,-8.66 61.99,-25.96 17.18,-17.31 26.24,-38.13 27.16,-62.44l0 -785.86c0,-22.45 -9.06,-41.39 -27.16,-56.83 -18.1,-15.44 -38.77,-23.15 -61.99,-23.15l-16.71 0 -1.39 -14.03 472.17 0zm-274.39 42.1l0 898.11 274.39 0c77.98,0 146.94,-18.72 206.82,-56.13 59.89,-37.42 106.32,-90.05 139.28,-157.88 32.97,-67.82 49.45,-146.17 49.45,-235.05 0,-134.72 -36.44,-243.24 -109.34,-325.57 -72.89,-82.33 -168.29,-123.49 -286.22,-123.49l-274.39 0zm1791.17 926.18l11.14 0 0 14.03 -313.39 0 0 -14.03 12.54 0c19.5,0 34.13,-6.31 43.87,-18.94 9.76,-12.63 14.62,-24.56 14.62,-35.78 0,-11.23 -1.86,-22.46 -5.57,-33.68l-89.14 -238.56 -376.06 0 -93.31 239.96c-3.72,11.23 -5.57,22.22 -5.57,32.97 0,10.76 4.88,22.46 14.62,35.09 9.75,12.63 24.37,18.94 43.87,18.94l12.54 0 0 14.03 -279.96 0 0 -14.03 12.54 0c23.22,0 45.96,-7.49 68.25,-22.46 22.29,-14.96 40.4,-36.96 54.32,-65.95l314.78 -754.99c34.36,-75.78 51.54,-123.95 51.54,-144.54l12.54 0 373.26 899.52c13.01,28.99 30.65,50.99 52.93,65.95 22.28,14.97 45.49,22.46 69.65,22.46zm-685.28 -369.07l342.64 0 -167.14 -450.47 -175.5 450.47z"/>
  <g id="_3007516461680">
   <circle class="fil1" cx="879.47" cy="881.56" r="879.47"/>
   <path class="fil2" d="M1294.17 1656.93c-429.07,228.47 -962.03,65.92 -1190.4,-363.06 -228.37,-428.98 -65.66,-961.94 363.4,-1190.41 274.95,-146.41 592.57,-132.25 845.36,9.7l-247.2 115.22c-20.75,-33.91 -64.12,-47.56 -101.02,-30.37 -39.65,18.49 -56.81,65.6 -38.32,105.24 18.5,39.64 65.63,56.79 105.28,38.31 36.23,-16.89 53.68,-57.68 42.32,-94.84l260.12 -121.24c40.21,24.08 78.65,51.46 114.87,82.02l-550.15 256.44c-20.99,-33.16 -63.86,-46.36 -100.38,-29.34 -39.66,18.49 -56.82,65.61 -38.32,105.25 18.49,39.64 65.63,56.79 105.28,38.3 36.61,-17.07 54.04,-58.54 41.95,-95.99l558.28 -260.23c32.07,28.46 62.27,59.49 90.27,92.97l-960.44 447.68c-32.75,-57.34 -104.59,-80.9 -165.52,-52.5 -64.2,29.93 -91.98,106.22 -62.04,170.39 29.94,64.17 106.25,91.94 170.45,62.01 61.34,-28.58 89.42,-99.48 65.7,-161.71l964.96 -449.79c25.9,32.5 49.77,67.21 71.32,104.03l-620.22 289.1c-21.05,-32.96 -63.79,-46.04 -100.2,-29.07 -39.66,18.48 -56.82,65.6 -38.32,105.24 18.49,39.64 65.62,56.79 105.27,38.3 36.71,-17.1 54.13,-58.76 41.85,-96.29l621.61 -289.75c2.57,4.63 5.11,9.28 7.61,13.97 16.96,31.86 31.71,64.31 44.41,97.15l-394.58 183.93c-20.98,-33.2 -63.87,-46.42 -100.41,-29.39 -39.66,18.48 -56.82,65.6 -38.32,105.24 18.49,39.64 65.63,56.79 105.27,38.3 36.6,-17.06 54.02,-58.49 41.97,-95.94l393.11 -183.23c14.4,39.92 25.67,80.4 34.01,121.12l-601.23 280.25c-20.97,-33.25 -63.89,-46.5 -100.45,-29.46 -39.66,18.49 -56.82,65.6 -38.32,105.24 18.49,39.65 65.62,56.79 105.27,38.31 36.57,-17.05 54.01,-58.43 42,-95.86l596.65 -278.12c7.8,43.26 12.22,86.75 13.46,130.11l-331.2 154.37c-21.12,-32.72 -63.69,-45.66 -99.99,-28.74 -39.66,18.49 -56.81,65.6 -38.32,105.24 18.5,39.64 65.63,56.79 105.28,38.31 36.83,-17.17 54.24,-59.04 41.72,-96.67l322.88 -150.49c0.16,47.35 -3.53,94.48 -10.89,140.94l-488.43 227.67c-21.04,-33.01 -63.8,-46.13 -100.24,-29.14 -39.66,18.49 -56.82,65.61 -38.33,105.25 18.5,39.64 65.63,56.79 105.28,38.3 36.69,-17.1 54.12,-58.7 41.88,-96.22l475.68 -221.72c-47.47,253.96 -205.78,484.79 -451.59,615.68zm-838.02 -889.89c32.74,-15.26 71.64,-1.1 86.91,31.62 15.26,32.72 1.1,71.6 -31.63,86.86 -32.74,15.26 -71.64,1.11 -86.9,-31.61 -15.27,-32.72 -1.11,-71.61 31.62,-86.87zm524.59 -533.83c20.22,-9.42 44.24,-0.68 53.67,19.53 9.43,20.21 0.69,44.23 -19.53,53.65 -20.22,9.43 -44.25,0.69 -53.68,-19.52 -9.43,-20.21 -0.68,-44.23 19.54,-53.66zm-166.26 236.59c20.22,-9.43 44.25,-0.69 53.68,19.52 9.43,20.21 0.68,44.23 -19.54,53.66 -20.22,9.42 -44.24,0.68 -53.67,-19.53 -9.43,-20.21 -0.69,-44.23 19.53,-53.65zm121.49 260.43c20.22,-9.43 44.24,-0.68 53.68,19.53 9.43,20.21 0.68,44.22 -19.54,53.65 -20.22,9.43 -44.25,0.68 -53.68,-19.53 -9.43,-20.21 -0.68,-44.22 19.54,-53.65zm287.44 23.16c20.22,-9.43 44.25,-0.69 53.68,19.52 9.43,20.22 0.68,44.23 -19.54,53.66 -20.22,9.42 -44.25,0.68 -53.68,-19.53 -9.43,-20.21 -0.68,-44.23 19.54,-53.65zm-165.63 236.27c20.22,-9.42 44.24,-0.68 53.68,19.53 9.43,20.21 0.68,44.23 -19.54,53.66 -20.22,9.42 -44.25,0.68 -53.68,-19.53 -9.43,-20.21 -0.68,-44.23 19.54,-53.66zm287.88 25.32c20.21,-9.42 44.24,-0.68 53.67,19.53 9.43,20.21 0.69,44.23 -19.53,53.65 -20.22,9.43 -44.25,0.69 -53.68,-19.52 -9.43,-20.21 -0.68,-44.23 19.54,-53.66zm-168 235.86c20.22,-9.43 44.24,-0.69 53.67,19.52 9.43,20.22 0.69,44.23 -19.53,53.66 -20.22,9.42 -44.25,0.68 -53.68,-19.53 -9.43,-20.21 -0.68,-44.23 19.54,-53.65z"/>
  </g>
  <path class="fil3" d="M2416.44 1559.08l3.74 0 0 4.71 -95.85 0 0 -4.71 3.74 0c5.92,0 10.44,-2.04 13.56,-6.12 3.12,-4.08 4.67,-7.93 4.67,-11.54 0,-3.61 -0.61,-7.14 -1.87,-10.6l-25.71 -62.64 -118.29 0 -25.71 61.24c-1.56,4.08 -2.34,7.93 -2.34,11.54 0,3.61 1.56,7.53 4.69,11.78 3.11,4.24 7.79,6.35 14.02,6.35l3.74 0 0 4.71 -89.3 0 0 -4.71 3.73 0c6.55,0 13.18,-2.27 19.88,-6.83 6.69,-4.55 12.23,-11.38 16.59,-20.49 68.25,-146.95 103.79,-223.89 106.59,-230.8 5.3,-13.19 8.1,-21.97 8.42,-26.38l4.2 0 115.47 257.18c9.04,18.21 21.04,27.32 36,27.32zm-209.91 -105.04l106.59 0 -52.36 -129.06 -54.23 129.06zm505.84 116.35c-47.68,-0.32 -85.31,-13.66 -112.9,-40.04 -27.57,-26.38 -41.38,-62.42 -41.38,-108.1 0,-45.69 13.8,-81.72 41.38,-108.1 27.58,-26.38 65.22,-39.56 112.9,-39.56 19.33,0 38.8,2.52 58.44,7.54 19.63,5.02 36.62,11.93 50.96,20.72l10.29 66.89 -4.21 0c-13.41,-54.01 -52.05,-81.02 -115.94,-81.02 -37.09,0 -66.39,11.93 -87.89,35.8 -21.5,23.86 -32.26,56.52 -32.26,97.97 0,27.01 4.83,50.47 14.49,70.41 9.67,19.94 23.69,35.41 42.08,46.4 18.4,10.99 39.74,16.48 64.05,16.48 24.32,0 45.59,-3.69 63.83,-11.06 18.23,-7.39 33.34,-19.55 45.34,-36.51 12,-16.96 18.78,-38 20.34,-63.12l4.2 0 -5.14 64.53c-12.15,18.84 -29.76,33.68 -52.82,44.51 -23.06,10.84 -48.3,16.25 -75.74,16.25zm301.07 -11.31c7.49,0 13.79,-2.43 18.94,-7.29 5.14,-4.87 7.86,-10.76 8.17,-17.66l0 -223.74c0,-6.91 -2.64,-12.72 -7.94,-17.43 -5.3,-4.7 -11.69,-7.07 -19.17,-7.07l-6.53 0 0 -4.7 136.5 0c12.79,0 24.01,-0.94 33.67,-2.83 9.66,-1.89 15.9,-3.45 18.69,-4.71l0 53.7 -5.13 -0.48 0 -7.07c0,-6.59 -2.19,-12.25 -6.54,-16.96 -4.37,-4.7 -9.98,-7.07 -16.83,-7.07l-97.24 0 0 119.64 79.94 0c6.23,0 10.98,-1.89 14.25,-5.66 3.29,-3.76 4.91,-8.47 4.91,-14.13l0 -6.12 5.14 0 0 65.95 -5.14 0 0 -6.12c0,-8.79 -3.28,-14.76 -9.82,-17.9 -2.5,-0.94 -5.13,-1.57 -7.94,-1.89l-81.34 0 0 119.64 73.39 0c14.34,0 26.42,-2.52 36.24,-7.54 9.82,-5.02 17.29,-10.99 22.43,-17.9 5.14,-6.91 10.37,-16.02 15.66,-27.32l4.68 0 -25.71 67.36 -189.8 0 0 -4.71 6.53 0zm366.99 -10.83c-0.93,-3.77 -1.39,-11.47 -1.39,-23.08 0,-11.62 2.02,-23.39 6.08,-35.33l5.6 0c-0.31,2.82 -0.47,5.65 -0.47,8.47 0,16.96 5.54,30.85 16.6,41.69 11.06,10.84 26.41,16.25 46.04,16.25 20.57,0 36.63,-4.8 48.16,-14.37 11.53,-9.58 17.3,-21.98 17.3,-37.21 0,-15.23 -5.61,-27.87 -16.83,-37.92l-93.5 -72.54c-14.96,-12.88 -22.45,-30.15 -22.45,-51.81 0,-12.25 3.35,-23.56 10.06,-33.92 6.69,-10.36 16.05,-18.61 28.05,-24.73 12,-6.12 26.09,-9.19 42.31,-9.19 16.21,0 30.54,1.42 43.01,4.24l15.42 0 0.93 51.34 -5.14 0c0,-13.19 -4.52,-23.39 -13.55,-30.61 -9.04,-7.22 -21.97,-10.84 -38.8,-10.84 -16.83,0 -30.7,4.32 -41.6,12.96 -10.91,8.63 -16.36,19.78 -16.36,33.44 0,13.65 6.08,25.52 18.23,35.56l94.44 73.47c14.33,11.93 21.51,28.58 21.51,49.93 0,21.35 -8.04,39.41 -24.08,54.17 -16.05,14.75 -35.61,22.14 -58.67,22.14 -15.27,0 -30.55,-1.89 -45.81,-5.66 -15.27,-3.77 -26.96,-9.26 -35.07,-16.48zm332.87 0c-0.94,-3.77 -1.4,-11.47 -1.4,-23.08 0,-11.62 2.02,-23.39 6.08,-35.33l5.6 0c-0.31,2.82 -0.46,5.65 -0.46,8.47 0,16.96 5.53,30.85 16.59,41.69 11.06,10.84 26.41,16.25 46.04,16.25 20.57,0 36.63,-4.8 48.16,-14.37 11.53,-9.58 17.3,-21.98 17.3,-37.21 0,-15.23 -5.61,-27.87 -16.83,-37.92l-93.5 -72.54c-14.96,-12.88 -22.45,-30.15 -22.45,-51.81 0,-12.25 3.36,-23.56 10.06,-33.92 6.7,-10.36 16.05,-18.61 28.05,-24.73 12,-6.12 26.1,-9.19 42.31,-9.19 16.21,0 30.54,1.42 43.01,4.24l15.42 0 0.93 51.34 -5.13 0c0,-13.19 -4.53,-23.39 -13.56,-30.61 -9.04,-7.22 -21.97,-10.84 -38.8,-10.84 -16.82,0 -30.7,4.32 -41.6,12.96 -10.91,8.63 -16.36,19.78 -16.36,33.44 0,13.65 6.08,25.52 18.23,35.56l94.44 73.47c14.33,11.93 21.51,28.58 21.51,49.93 0,21.35 -8.03,39.41 -24.08,54.17 -16.05,14.75 -35.61,22.14 -58.67,22.14 -15.27,0 -30.55,-1.89 -45.81,-5.66 -15.27,-3.77 -26.96,-9.26 -35.06,-16.48zm407.66 -255.06c24,-12.4 50.42,-18.61 79.24,-18.61 28.83,0 55.25,6.2 79.25,18.61 24,12.41 43.09,29.91 57.27,52.52 14.18,22.61 21.27,48.2 21.27,76.78 0,28.57 -7.09,54.17 -21.27,76.78 -14.19,22.61 -33.28,40.11 -57.27,52.52 -24,12.4 -48.61,18.61 -73.87,18.61 -25.25,0 -47.53,-3.62 -66.85,-10.84 -19.34,-7.22 -36.09,-17.27 -50.26,-30.15 -14.18,-12.88 -25.41,-28.57 -33.66,-47.1 -8.26,-18.52 -12.39,-40.27 -12.39,-65.23 0,-24.97 7.09,-48.75 21.27,-71.36 14.19,-22.61 33.28,-40.11 57.27,-52.52zm-8.65 225.62c23.53,24.97 52.75,37.45 87.66,37.45 34.91,0 64.2,-12.48 87.89,-37.45 23.68,-24.97 35.53,-57.07 35.53,-96.32 0,-39.25 -11.85,-71.36 -35.53,-96.32 -23.69,-24.97 -52.99,-37.45 -87.89,-37.45 -34.91,0 -64.13,12.48 -87.66,37.45 -23.53,24.97 -35.3,57.07 -35.3,96.32 0,39.25 11.77,71.36 35.3,96.32zm498.59 -223.03l-24.78 0 0 237.87c0.32,9.74 4.69,17.11 13.1,22.14 4.05,2.2 8.58,3.29 13.56,3.29l6.08 0 0.46 4.71 -95.83 0 0 -4.71 6.54 0c7.17,0 13.33,-2.43 18.46,-7.29 5.14,-4.87 7.72,-10.76 7.72,-17.66l0 -223.74c0,-6.91 -2.57,-12.72 -7.72,-17.43 -5.13,-4.7 -11.29,-7.07 -18.46,-7.07l-6.54 0 0 -4.7 117.34 0c29.3,0 52.44,6.74 69.43,20.25 16.99,13.5 25.48,31.24 25.48,53.23 0,21.97 -6.85,40.35 -20.57,55.1 -13.71,14.76 -31.16,23.24 -52.36,25.44 9.98,4.39 21.97,16.64 36,36.74 -0.32,0 5.06,6.91 16.13,20.72 11.06,13.82 19.94,24.57 26.65,32.27 6.7,7.7 12.24,13.58 16.59,17.66 11.53,10.99 24.78,16.48 39.74,16.48l0 4.71 -14.5 0c-24.62,0 -43.95,-4.87 -57.97,-14.6 -10.59,-7.23 -20.25,-16.18 -28.98,-26.85 -1.87,-2.52 -9.74,-13.58 -23.61,-33.21 -13.86,-19.62 -21.26,-30.06 -22.2,-31.32 -16.83,-21.04 -32.57,-31.56 -47.21,-31.56l0 -4.71c36.46,0 58.43,-1.89 65.91,-5.66 10.3,-5.34 17.31,-10.99 21.04,-16.95 7.79,-12.57 11.69,-26.38 11.69,-41.46 0,-19.15 -5.61,-33.91 -16.83,-44.27 -11.22,-10.37 -26.33,-16.02 -45.35,-16.96 -8.41,-0.32 -18.08,-0.48 -28.98,-0.48zm329.12 263.3c8.42,0 15.74,-2.51 21.97,-7.53 6.23,-5.02 9.36,-10.99 9.36,-17.9l0 -222.32c0,-6.91 -3.13,-12.88 -9.36,-17.9 -6.23,-5.02 -13.71,-7.54 -22.43,-7.54l-6.08 0 0 -4.7 105.65 0 0 4.7 -6.08 0c-8.41,0 -15.66,2.36 -21.74,7.07 -6.08,4.71 -9.44,10.52 -10.06,17.43l0 223.74c0.32,6.9 3.59,12.79 9.82,17.66 6.23,4.86 13.56,7.29 21.97,7.29l6.08 0 0.47 4.71 -106.12 0 0 -4.71 6.53 0zm343.63 -265.89c24,-12.4 50.41,-18.61 79.23,-18.61 28.84,0 55.25,6.2 79.25,18.61 24,12.41 43.1,29.91 57.27,52.52 14.18,22.61 21.28,48.2 21.28,76.78 0,28.57 -7.1,54.17 -21.28,76.78 -14.18,22.61 -33.28,40.11 -57.27,52.52 -24,12.4 -48.61,18.61 -73.87,18.61 -25.24,0 -47.53,-3.62 -66.85,-10.84 -19.33,-7.22 -36.08,-17.27 -50.26,-30.15 -14.18,-12.88 -25.41,-28.57 -33.66,-47.1 -8.26,-18.52 -12.39,-40.27 -12.39,-65.23 0,-24.97 7.09,-48.75 21.28,-71.36 14.18,-22.61 33.27,-40.11 57.27,-52.52zm-8.65 225.62c23.52,24.97 52.74,37.45 87.66,37.45 34.91,0 64.2,-12.48 87.89,-37.45 23.69,-24.97 35.53,-57.07 35.53,-96.32 0,-39.25 -11.84,-71.36 -35.53,-96.32 -23.69,-24.97 -52.98,-37.45 -87.89,-37.45 -34.91,0 -64.14,12.48 -87.66,37.45 -23.54,24.97 -35.3,57.07 -35.3,96.32 0,39.25 11.76,71.36 35.3,96.32zm412.56 29.44c-0.93,-3.77 -1.4,-11.47 -1.4,-23.08 0,-11.62 2.03,-23.39 6.08,-35.33l5.61 0c-0.31,2.82 -0.47,5.65 -0.47,8.47 0,16.96 5.54,30.85 16.6,41.69 11.06,10.84 26.41,16.25 46.04,16.25 20.57,0 36.63,-4.8 48.16,-14.37 11.53,-9.58 17.3,-21.98 17.3,-37.21 0,-15.23 -5.62,-27.87 -16.83,-37.92l-93.5 -72.54c-14.96,-12.88 -22.45,-30.15 -22.45,-51.81 0,-12.25 3.35,-23.56 10.06,-33.92 6.69,-10.36 16.05,-18.61 28.05,-24.73 12,-6.12 26.09,-9.19 42.31,-9.19 16.21,0 30.54,1.42 43,4.24l15.43 0 0.93 51.34 -5.14 0c0,-13.19 -4.52,-23.39 -13.56,-30.61 -9.03,-7.22 -21.97,-10.84 -38.8,-10.84 -16.82,0 -30.69,4.32 -41.6,12.96 -10.91,8.63 -16.36,19.78 -16.36,33.44 0,13.65 6.08,25.52 18.23,35.56l94.43 73.47c14.34,11.93 21.52,28.58 21.52,49.93 0,21.35 -8.04,39.41 -24.09,54.17 -16.04,14.75 -35.6,22.14 -58.66,22.14 -15.27,0 -30.55,-1.89 -45.82,-5.66 -15.27,-3.77 -26.95,-9.26 -35.06,-16.48zm960.25 10.83l7.49 0 0 4.71 -101.45 0 0 -4.24 7.01 0c5.3,0 9.82,-2.12 13.56,-6.36 3.74,-4.24 5.29,-8.87 4.68,-13.89l-21.04 -236.92 -98.17 219.97c-8.73,19.15 -14.03,35.17 -15.9,48.05l-4.68 0 -119.69 -261.42 -20.1 230.34c-0.62,5.02 0.93,9.66 4.68,13.89 3.74,4.24 8.1,6.36 13.09,6.36l7.49 0 0 4.24 -90.7 0 0 -4.71 7.47 0c8.73,0 16.29,-2.66 22.69,-8.01 6.39,-5.34 10.2,-12.56 11.45,-21.66l35.07 -301.92 4.67 0 130.43 284.02 127.62 -284.02 4.21 0 35.99 301.92c1.56,12.56 7.8,21.35 18.71,26.38 4.68,2.2 9.82,3.29 15.42,3.29zm442.27 -273.19l-7.01 0c-8.42,0 -14.81,3.3 -19.17,9.89 -1.87,2.83 -2.97,6.12 -3.27,9.89l0 158.73c0,32.66 -10.37,58.49 -31.09,77.49 -20.73,19 -49.16,28.5 -85.32,28.5 -36.15,0 -64.67,-9.43 -85.55,-28.26 -20.88,-18.84 -31.33,-44.6 -31.33,-77.25l0 -158.73c0,-5.66 -2.18,-10.44 -6.53,-14.37 -4.37,-3.93 -9.66,-5.89 -15.9,-5.89l-7.01 0 0 -4.7 88.82 0 0 4.7 -7.02 0c-6.22,0 -11.52,1.97 -15.89,5.89 -4.37,3.93 -6.54,8.71 -6.54,14.37l0 153.07c0,30.47 7.72,54.48 23.15,72.07 15.42,17.58 37.24,26.38 65.45,26.38 28.21,0 50.8,-8.32 67.79,-24.97 16.99,-16.64 25.48,-39.41 25.48,-68.3l0 -158.25c-0.31,-5.97 -2.57,-10.84 -6.78,-14.61 -4.21,-3.77 -9.43,-5.66 -15.66,-5.66l-7.02 0 0 -4.7 80.42 0 0 4.7zm160.35 262.37c-0.93,-3.77 -1.39,-11.47 -1.39,-23.08 0,-11.62 2.02,-23.39 6.08,-35.33l5.6 0c-0.31,2.82 -0.47,5.65 -0.47,8.47 0,16.96 5.54,30.85 16.6,41.69 11.06,10.84 26.41,16.25 46.04,16.25 20.57,0 36.63,-4.8 48.16,-14.37 11.53,-9.58 17.3,-21.98 17.3,-37.21 0,-15.23 -5.61,-27.87 -16.83,-37.92l-93.5 -72.54c-14.96,-12.88 -22.45,-30.15 -22.45,-51.81 0,-12.25 3.35,-23.56 10.06,-33.92 6.69,-10.36 16.05,-18.61 28.05,-24.73 12,-6.12 26.09,-9.19 42.31,-9.19 16.21,0 30.54,1.42 43.01,4.24l15.42 0 0.93 51.34 -5.14 0c0,-13.19 -4.52,-23.39 -13.55,-30.61 -9.04,-7.22 -21.97,-10.84 -38.81,-10.84 -16.82,0 -30.69,4.32 -41.6,12.96 -10.91,8.63 -16.36,19.78 -16.36,33.44 0,13.65 6.08,25.52 18.23,35.56l94.43 73.47c14.34,11.93 21.52,28.58 21.52,49.93 0,21.35 -8.04,39.41 -24.08,54.17 -16.05,14.75 -35.61,22.14 -58.67,22.14 -15.27,0 -30.55,-1.89 -45.81,-5.66 -15.27,-3.77 -26.96,-9.26 -35.07,-16.48zm338.01 10.83c8.42,0 15.74,-2.51 21.97,-7.53 6.23,-5.02 9.36,-10.99 9.36,-17.9l0 -222.32c0,-6.91 -3.13,-12.88 -9.36,-17.9 -6.23,-5.02 -13.72,-7.54 -22.43,-7.54l-6.08 0 0 -4.7 105.65 0 0 4.7 -6.08 0c-8.41,0 -15.66,2.36 -21.74,7.07 -6.08,4.71 -9.44,10.52 -10.06,17.43l0 223.74c0.32,6.9 3.59,12.79 9.82,17.66 6.23,4.86 13.56,7.29 21.97,7.29l6.08 0 0.47 4.71 -106.12 0 0 -4.71 6.53 0zm419.35 11.31c-47.68,-0.32 -85.31,-13.66 -112.9,-40.04 -27.57,-26.38 -41.38,-62.42 -41.38,-108.1 0,-45.69 13.8,-81.72 41.38,-108.1 27.58,-26.38 65.22,-39.56 112.9,-39.56 19.33,0 38.8,2.52 58.44,7.54 19.63,5.02 36.62,11.93 50.96,20.72l10.29 66.89 -4.21 0c-13.41,-54.01 -52.05,-81.02 -115.94,-81.02 -37.09,0 -66.39,11.93 -87.89,35.8 -21.5,23.86 -32.26,56.52 -32.26,97.97 0,27.01 4.84,50.47 14.5,70.41 9.66,19.94 23.69,35.41 42.07,46.4 18.4,10.99 39.74,16.48 64.05,16.48 24.32,0 45.59,-3.69 63.83,-11.06 18.23,-7.39 33.34,-19.55 45.34,-36.51 12.01,-16.96 18.78,-38 20.34,-63.12l4.2 0 -5.14 64.53c-12.15,18.84 -29.76,33.68 -52.82,44.51 -23.06,10.84 -48.3,16.25 -75.74,16.25zm577.37 -11.31l3.74 0 0 4.71 -95.84 0 0 -4.71 3.74 0c5.92,0 10.43,-2.04 13.56,-6.12 3.11,-4.08 4.67,-7.93 4.67,-11.54 0,-3.61 -0.62,-7.14 -1.88,-10.6l-25.7 -62.64 -118.29 0 -25.71 61.24c-1.56,4.08 -2.34,7.93 -2.34,11.54 0,3.61 1.56,7.53 4.68,11.78 3.12,4.24 7.8,6.35 14.03,6.35l3.74 0 0 4.71 -89.3 0 0 -4.71 3.73 0c6.55,0 13.17,-2.27 19.88,-6.83 6.69,-4.55 12.23,-11.38 16.59,-20.49 68.25,-146.95 103.79,-223.89 106.58,-230.8 5.31,-13.19 8.11,-21.97 8.42,-26.38l4.21 0 115.47 257.18c9.03,18.21 21.04,27.32 35.99,27.32zm-209.9 -105.04l106.58 0 -52.36 -129.06 -54.23 129.06zm360.44 105.04c8.42,0 15.74,-2.51 21.97,-7.53 6.23,-5.02 9.36,-10.99 9.36,-17.9l0 -222.32c0,-6.91 -3.13,-12.88 -9.36,-17.9 -6.23,-5.02 -13.71,-7.54 -22.43,-7.54l-6.08 0 0 -4.7 105.65 0 0 4.7 -6.08 0c-8.41,0 -15.66,2.36 -21.74,7.07 -6.08,4.71 -9.44,10.52 -10.06,17.43l0 223.74c0.32,6.9 3.59,12.79 9.82,17.66 6.23,4.86 13.56,7.29 21.97,7.29l6.08 0 0.47 4.71 -106.12 0 0 -4.71 6.53 0zm268.82 -10.83c-0.93,-3.77 -1.4,-11.47 -1.4,-23.08 0,-11.62 2.03,-23.39 6.08,-35.33l5.61 0c-0.31,2.82 -0.47,5.65 -0.47,8.47 0,16.96 5.54,30.85 16.59,41.69 11.06,10.84 26.42,16.25 46.05,16.25 20.57,0 36.62,-4.8 48.16,-14.37 11.52,-9.58 17.3,-21.98 17.3,-37.21 0,-15.23 -5.62,-27.87 -16.83,-37.92l-93.51 -72.54c-14.95,-12.88 -22.44,-30.15 -22.44,-51.81 0,-12.25 3.35,-23.56 10.06,-33.92 6.69,-10.36 16.04,-18.61 28.05,-24.73 12,-6.12 26.09,-9.19 42.31,-9.19 16.2,0 30.54,1.42 43,4.24l15.43 0 0.93 51.34 -5.14 0c0,-13.19 -4.52,-23.39 -13.56,-30.61 -9.03,-7.22 -21.97,-10.84 -38.8,-10.84 -16.82,0 -30.69,4.32 -41.6,12.96 -10.91,8.63 -16.35,19.78 -16.35,33.44 0,13.65 6.08,25.52 18.23,35.56l94.43 73.47c14.33,11.93 21.52,28.58 21.52,49.93 0,21.35 -8.04,39.41 -24.09,54.17 -16.04,14.75 -35.6,22.14 -58.66,22.14 -15.27,0 -30.55,-1.89 -45.82,-5.66 -15.27,-3.77 -26.95,-9.26 -35.06,-16.48z"/>
 </g>
</svg>
